<?xml version="1.0" standalone="no"?>
<!DOCTYPE svg PUBLIC "-//W3C//DTD SVG 20010904//EN"
 "http://www.w3.org/TR/2001/REC-SVG-20010904/DTD/svg10.dtd">
<svg version="1.0" xmlns="http://www.w3.org/2000/svg"
 width="890.000000pt" height="890.000000pt" viewBox="0 0 890.000000 890.000000"
 preserveAspectRatio="xMidYMid meet">
<metadata>
Created by potrace 1.14, written by Peter Selinger 2001-2017
</metadata>
<g transform="translate(0.000000,890.000000) scale(0.100000,-0.100000)"
fill="#000000" stroke="none">
<path d="M1650 8405 l0 -495 1115 0 1115 0 0 -1812 c0 -1136 -4 -1865 -10
-1953 -20 -274 -72 -501 -149 -652 -139 -274 -401 -485 -951 -767 -177 -90
-636 -307 -798 -376 -49 -21 -53 -25 -47 -49 12 -52 195 -409 273 -533 89
-143 271 -388 286 -388 45 0 872 405 1136 555 367 210 595 376 805 589 347
351 501 711 572 1339 14 125 17 427 20 2590 l4 2447 -1686 0 -1685 0 0 -495z"/>
<path d="M6100 6433 c0 -1525 -4 -2525 -10 -2618 -65 -982 -349 -1611 -970
-2146 -311 -268 -834 -582 -1564 -939 l-218 -108 68 -44 c117 -75 382 -232
524 -308 190 -103 492 -250 513 -250 25 0 521 251 712 360 671 386 1130 787
1464 1280 337 498 515 1021 598 1761 15 128 17 432 20 2812 l4 2667 -571 0
-570 0 0 -2467z"/>
</g>
</svg>
